<svg width="44" height="44" viewBox="0 0 44 44" fill="none" xmlns="http://www.w3.org/2000/svg">
<path d="M42.625 40.6808L36.179 34.2348C37.9027 32.0176 38.7165 29.2269 38.4548 26.4308C38.1931 23.6347 36.8755 21.0435 34.7703 19.1848C32.6651 17.3261 29.9306 16.3396 27.1236 16.4263C24.3166 16.513 21.6482 17.6663 19.6617 19.6514C17.6752 21.6365 16.52 24.3041 16.4313 27.111C16.3427 29.9179 17.3272 32.6531 19.1844 34.7596C21.0416 36.8661 23.6319 38.1856 26.4278 38.4493C29.2237 38.713 32.015 37.9011 34.2334 36.179L40.6808 42.625L42.625 40.6808ZM27.5 35.75C25.8683 35.75 24.2733 35.2661 22.9165 34.3596C21.5598 33.4531 20.5024 32.1646 19.878 30.6571C19.2536 29.1496 19.0902 27.4908 19.4085 25.8905C19.7269 24.2902 20.5126 22.8202 21.6664 21.6664C22.8202 20.5126 24.2902 19.7269 25.8905 19.4085C27.4908 19.0902 29.1496 19.2536 30.6571 19.878C32.1646 20.5024 33.4531 21.5598 34.3596 22.9165C35.2661 24.2733 35.75 25.8683 35.75 27.5C35.7475 29.6873 34.8774 31.7842 33.3308 33.3308C31.7842 34.8774 29.6873 35.7475 27.5 35.75ZM11 35.75H5.5C4.77065 35.75 4.07118 35.4603 3.55546 34.9445C3.03973 34.4288 2.75 33.7293 2.75 33V27.5H5.5V33H11V35.75ZM2.75 16.5H5.5V22H2.75V16.5ZM35.75 11H33V5.5H27.5V2.75H33C33.7293 2.75 34.4288 3.03973 34.9445 3.55546C35.4603 4.07118 35.75 4.77065 35.75 5.5V11ZM16.5 2.75H22V5.5H16.5V2.75ZM5.5 11H2.75V5.5C2.75 4.77065 3.03973 4.07118 3.55546 3.55546C4.07118 3.03973 4.77065 2.75 5.5 2.75H11V5.5H5.5V11Z" fill="black"/>
</svg>
