<svg width="87" height="87" viewBox="0 0 87 87" fill="none" xmlns="http://www.w3.org/2000/svg">
<path d="M28.0938 9.0625C28.0938 8.34144 27.8073 7.64992 27.2974 7.14005C26.7876 6.63019 26.0961 6.34375 25.375 6.34375C24.6539 6.34375 23.9624 6.63019 23.4526 7.14005C22.9427 7.64992 22.6562 8.34144 22.6562 9.0625V14.79C17.4363 15.2069 14.0143 16.2291 11.4985 18.7485C8.97913 21.2643 7.95688 24.6899 7.53638 29.9063H79.4636C79.0431 24.6863 78.0209 21.2643 75.5015 18.7485C72.9857 16.2291 69.5601 15.2069 64.3437 14.7864V9.0625C64.3437 8.34144 64.0573 7.64992 63.5474 7.14005C63.0376 6.63019 62.3461 6.34375 61.625 6.34375C60.9039 6.34375 60.2124 6.63019 59.7025 7.14005C59.1927 7.64992 58.9062 8.34144 58.9062 9.0625V14.5471C56.4956 14.5 53.7914 14.5 50.75 14.5H36.25C33.2086 14.5 30.5044 14.5 28.0938 14.5471V9.0625Z" fill="black"/>
<path fill-rule="evenodd" clip-rule="evenodd" d="M7.25 43.5C7.25 40.4586 7.25 37.7544 7.29713 35.3438H79.7029C79.75 37.7544 79.75 40.4586 79.75 43.5V50.75C79.75 64.4199 79.75 71.2566 75.5015 75.5015C71.253 79.7464 64.4199 79.75 50.75 79.75H36.25C22.5801 79.75 15.7434 79.75 11.4985 75.5015C7.25362 71.253 7.25 64.4199 7.25 50.75V43.5ZM61.625 50.75C62.5864 50.75 63.5084 50.3681 64.1883 49.6883C64.8681 49.0084 65.25 48.0864 65.25 47.125C65.25 46.1636 64.8681 45.2416 64.1883 44.5617C63.5084 43.8819 62.5864 43.5 61.625 43.5C60.6636 43.5 59.7416 43.8819 59.0617 44.5617C58.3819 45.2416 58 46.1636 58 47.125C58 48.0864 58.3819 49.0084 59.0617 49.6883C59.7416 50.3681 60.6636 50.75 61.625 50.75ZM61.625 65.25C62.5864 65.25 63.5084 64.8681 64.1883 64.1883C64.8681 63.5084 65.25 62.5864 65.25 61.625C65.25 60.6636 64.8681 59.7416 64.1883 59.0617C63.5084 58.3819 62.5864 58 61.625 58C60.6636 58 59.7416 58.3819 59.0617 59.0617C58.3819 59.7416 58 60.6636 58 61.625C58 62.5864 58.3819 63.5084 59.0617 64.1883C59.7416 64.8681 60.6636 65.25 61.625 65.25ZM47.125 47.125C47.125 48.0864 46.7431 49.0084 46.0633 49.6883C45.3834 50.3681 44.4614 50.75 43.5 50.75C42.5386 50.75 41.6166 50.3681 40.9367 49.6883C40.2569 49.0084 39.875 48.0864 39.875 47.125C39.875 46.1636 40.2569 45.2416 40.9367 44.5617C41.6166 43.8819 42.5386 43.5 43.5 43.5C44.4614 43.5 45.3834 43.8819 46.0633 44.5617C46.7431 45.2416 47.125 46.1636 47.125 47.125ZM47.125 61.625C47.125 62.5864 46.7431 63.5084 46.0633 64.1883C45.3834 64.8681 44.4614 65.25 43.5 65.25C42.5386 65.25 41.6166 64.8681 40.9367 64.1883C40.2569 63.5084 39.875 62.5864 39.875 61.625C39.875 60.6636 40.2569 59.7416 40.9367 59.0617C41.6166 58.3819 42.5386 58 43.5 58C44.4614 58 45.3834 58.3819 46.0633 59.0617C46.7431 59.7416 47.125 60.6636 47.125 61.625ZM25.375 50.75C26.3364 50.75 27.2584 50.3681 27.9383 49.6883C28.6181 49.0084 29 48.0864 29 47.125C29 46.1636 28.6181 45.2416 27.9383 44.5617C27.2584 43.8819 26.3364 43.5 25.375 43.5C24.4136 43.5 23.4916 43.8819 22.8117 44.5617C22.1319 45.2416 21.75 46.1636 21.75 47.125C21.75 48.0864 22.1319 49.0084 22.8117 49.6883C23.4916 50.3681 24.4136 50.75 25.375 50.75ZM25.375 65.25C26.3364 65.25 27.2584 64.8681 27.9383 64.1883C28.6181 63.5084 29 62.5864 29 61.625C29 60.6636 28.6181 59.7416 27.9383 59.0617C27.2584 58.3819 26.3364 58 25.375 58C24.4136 58 23.4916 58.3819 22.8117 59.0617C22.1319 59.7416 21.75 60.6636 21.75 61.625C21.75 62.5864 22.1319 63.5084 22.8117 64.1883C23.4916 64.8681 24.4136 65.25 25.375 65.25Z" fill="black"/>
</svg>
