<svg width="146" height="147" viewBox="0 0 146 147" fill="none" xmlns="http://www.w3.org/2000/svg">
<path fill-rule="evenodd" clip-rule="evenodd" d="M145.4 73.4998C145.4 113.7 112.9 146.2 72.7 146.2C32.5 146.2 0 113.7 0 73.4998C0 33.2998 32.5 0.799805 72.7 0.799805C112.9 0.799805 145.4 33.2998 145.4 73.4998ZM140.6 73.4998C140.6 36.0998 110.1 5.59979 72.7 5.59979C35.2999 5.59979 4.80005 36.0998 4.80005 73.4998C4.80005 110.9 35.2999 141.4 72.7 141.4C110.1 141.4 140.6 110.9 140.6 73.4998ZM108.3 47.5998C109.3 48.4998 109.3 49.9998 108.3 50.9998L64.7 94.5998C64.2 95.0998 63.6 95.2998 63 95.2998C62.4 95.2998 61.8 95.0998 61.3 94.5998L37.0999 70.3998C36.0999 69.3998 36.0999 67.8998 37.0999 66.8998C37.9999 65.9998 39.5 65.9998 40.5 66.8998L63 89.4998L104.9 47.5998C105.9 46.5998 107.4 46.5998 108.3 47.5998Z" fill="#009C7B"/>
</svg>
