<svg width="23" height="23" viewBox="0 0 23 23" fill="none" xmlns="http://www.w3.org/2000/svg">
<g clip-path="url(#clip0_77_85)">
<path fill-rule="evenodd" clip-rule="evenodd" d="M1.64286 0C1.20714 0 0.789277 0.173086 0.481182 0.481182C0.173086 0.789277 0 1.20714 0 1.64286L0 11.5C0 11.9357 0.173086 12.3536 0.481182 12.6617C0.789277 12.9698 1.20714 13.1429 1.64286 13.1429H8.21429C8.65 13.1429 9.06787 12.9698 9.37596 12.6617C9.68406 12.3536 9.85714 11.9357 9.85714 11.5V1.64286C9.85714 1.20714 9.68406 0.789277 9.37596 0.481182C9.06787 0.173086 8.65 0 8.21429 0L1.64286 0ZM13.1429 1.64286C13.1429 1.20714 13.3159 0.789277 13.624 0.481182C13.9321 0.173086 14.35 0 14.7857 0L21.3571 0C21.7929 0 22.2107 0.173086 22.5188 0.481182C22.8269 0.789277 23 1.20714 23 1.64286V4.945C23 5.38071 22.8269 5.79858 22.5188 6.10668C22.2107 6.41477 21.7929 6.58786 21.3571 6.58786H14.7857C14.35 6.58786 13.9321 6.41477 13.624 6.10668C13.3159 5.79858 13.1429 5.38071 13.1429 4.945V1.64286ZM13.1429 11.5C13.1429 11.0643 13.3159 10.6464 13.624 10.3383C13.9321 10.0302 14.35 9.85714 14.7857 9.85714H21.3571C21.7929 9.85714 22.2107 10.0302 22.5188 10.3383C22.8269 10.6464 23 11.0643 23 11.5V21.3571C23 21.7929 22.8269 22.2107 22.5188 22.5188C22.2107 22.8269 21.7929 23 21.3571 23H14.7857C14.35 23 13.9321 22.8269 13.624 22.5188C13.3159 22.2107 13.1429 21.7929 13.1429 21.3571V11.5ZM0 18.055C0 17.6193 0.173086 17.2014 0.481182 16.8933C0.789277 16.5852 1.20714 16.4121 1.64286 16.4121H8.21429C8.65 16.4121 9.06787 16.5852 9.37596 16.8933C9.68406 17.2014 9.85714 17.6193 9.85714 18.055V21.3571C9.85714 21.7929 9.68406 22.2107 9.37596 22.5188C9.06787 22.8269 8.65 23 8.21429 23H1.64286C1.20714 23 0.789277 22.8269 0.481182 22.5188C0.173086 22.2107 0 21.7929 0 21.3571V18.055Z" fill="black"/>
</g>
<defs>
<clipPath id="clip0_77_85">
<rect width="23" height="23" fill="white"/>
</clipPath>
</defs>
</svg>
