<svg width="33" height="33" viewBox="0 0 33 33" fill="none" xmlns="http://www.w3.org/2000/svg">
<path d="M20.625 15.3215C21.0938 15.3215 21.5435 15.1352 21.875 14.8037C22.2066 14.4721 22.3928 14.0225 22.3928 13.5536C22.3928 13.0847 22.2066 12.6351 21.875 12.3035C21.5435 11.972 21.0938 11.7857 20.625 11.7857C20.1561 11.7857 19.7064 11.972 19.3749 12.3035C19.0434 12.6351 18.8571 13.0847 18.8571 13.5536C18.8571 14.0225 19.0434 14.4721 19.3749 14.8037C19.7064 15.1352 20.1561 15.3215 20.625 15.3215ZM14.1428 13.5536C14.1428 14.0225 13.9566 14.4721 13.625 14.8037C13.2935 15.1352 12.8438 15.3215 12.375 15.3215C11.9061 15.3215 11.4564 15.1352 11.1249 14.8037C10.7934 14.4721 10.6071 14.0225 10.6071 13.5536C10.6071 13.0847 10.7934 12.6351 11.1249 12.3035C11.4564 11.972 11.9061 11.7857 12.375 11.7857C12.8438 11.7857 13.2935 11.972 13.625 12.3035C13.9566 12.6351 14.1428 13.0847 14.1428 13.5536ZM9.81512 20.189C10.0083 20.0575 10.2457 20.0078 10.4754 20.0509C10.7051 20.0939 10.9084 20.2262 11.0408 20.4188L11.0514 20.4329L11.1033 20.5025C11.1528 20.5661 11.2329 20.6628 11.3425 20.783C11.5629 21.0222 11.8988 21.3487 12.3538 21.6751C13.2589 22.3269 14.6284 22.9822 16.5 22.9822C18.3715 22.9822 19.741 22.3269 20.6462 21.6751C21.1011 21.3487 21.4382 21.0222 21.6574 20.783C21.7604 20.6711 21.858 20.5543 21.9497 20.4329L21.9579 20.4211C22.09 20.2273 22.2936 20.0939 22.5241 20.0503C22.7545 20.0066 22.9928 20.0563 23.1866 20.1884C23.3804 20.3204 23.5138 20.5241 23.5574 20.7545C23.6011 20.9849 23.5514 21.2232 23.4194 21.417L23.417 21.4182V21.4206L23.4135 21.4241L23.4052 21.4359L23.3793 21.4724L23.2897 21.5903C23.1844 21.7235 23.0743 21.8528 22.9597 21.978C22.573 22.3985 22.1437 22.7777 21.6786 23.1095C20.5354 23.9333 18.8123 24.75 16.5 24.75C14.1876 24.75 12.4645 23.9321 11.3213 23.1106C10.8557 22.7782 10.426 22.3982 10.039 21.9769C9.88253 21.8043 9.73464 21.6242 9.5959 21.4371L9.58647 21.4253L9.58412 21.4206L9.58294 21.4182L9.58176 21.417C9.44986 21.2232 9.40034 20.985 9.4441 20.7547C9.48786 20.5244 9.62132 20.3209 9.81512 20.189ZM16.5 2.35718C8.68958 2.35718 2.35712 8.68964 2.35712 16.5C2.35712 24.3104 8.68958 30.6429 16.5 30.6429C24.3104 30.6429 30.6428 24.3104 30.6428 16.5C30.6428 8.68964 24.3104 2.35718 16.5 2.35718ZM4.12497 16.5C4.12497 9.6655 9.66544 4.12503 16.5 4.12503C23.3345 4.12503 28.875 9.6655 28.875 16.5C28.875 23.3346 23.3345 28.875 16.5 28.875C9.66544 28.875 4.12497 23.3346 4.12497 16.5Z" fill="black"/>
</svg>
