<svg width="77" height="77" viewBox="0 0 77 77" fill="none" xmlns="http://www.w3.org/2000/svg">
<g clip-path="url(#clip0_10_489)">
<path d="M70.84 27.3992C67.8675 28.7619 64.5492 29.1824 61.3307 28.6042C58.1123 28.0259 55.1478 26.4766 52.8356 24.1644C50.5234 21.8522 48.9741 18.8877 48.3958 15.6693C47.8176 12.4508 48.2381 9.1325 49.6008 6.16C42.2565 3.62052 34.2681 3.64634 26.9403 6.23324C19.6126 8.82014 13.3785 13.8153 9.25624 20.4028C5.13399 26.9903 3.36718 34.7808 4.24439 42.5022C5.12159 50.2235 8.59097 57.4192 14.0859 62.9141C19.5808 68.409 26.7765 71.8784 34.4978 72.7556C42.2191 73.6328 50.0097 71.866 56.5972 67.7437C63.1847 63.6215 68.1798 57.3874 70.7667 50.0596C73.3537 42.7319 73.3795 34.7435 70.84 27.3992ZM38.0294 59.4825C37.3314 59.4825 36.6491 59.2755 36.0687 58.8877C35.4884 58.4999 35.036 57.9488 34.7689 57.3039C34.5018 56.659 34.4319 55.9494 34.5681 55.2648C34.7043 54.5802 35.0404 53.9514 35.5339 53.4578C36.0275 52.9643 36.6563 52.6282 37.3409 52.492C38.0255 52.3558 38.7351 52.4257 39.38 52.6928C40.0249 52.9599 40.576 53.4123 40.9638 53.9926C41.3516 54.573 41.5586 55.2553 41.5586 55.9533C41.57 56.4239 41.4872 56.8921 41.3149 57.3302C41.1427 57.7683 40.8845 58.1675 40.5557 58.5043C40.2268 58.8412 39.8339 59.1088 39.4 59.2915C38.9662 59.4742 38.5002 59.5682 38.0294 59.5681V59.4825ZM40.9597 42.2431V45.9219C40.9552 46.6701 40.6647 47.3883 40.1477 47.9291C39.6307 48.47 38.9264 48.7926 38.1792 48.8308H37.9439C37.5657 48.8451 37.1884 48.7844 36.8338 48.6521C36.4792 48.5198 36.1544 48.3186 35.878 48.06C35.6016 47.8015 35.3791 47.4908 35.2234 47.1459C35.0677 46.8009 34.9818 46.4286 34.9708 46.0503V40.1469C34.9356 39.804 34.9703 39.4575 35.073 39.1285C35.1757 38.7994 35.3441 38.4946 35.5681 38.2326C35.7922 37.9706 36.0671 37.7568 36.3762 37.6042C36.6853 37.4517 37.0222 37.3635 37.3664 37.345C40.7244 37.0883 46.3069 35.8478 46.3069 30.3936C46.3069 26.4794 43.2911 23.8272 38.9705 23.8272C37.3327 23.8543 35.7201 24.2353 34.2433 24.9441C32.7665 25.653 31.4605 26.6729 30.415 27.9339C30.0196 28.3541 29.5081 28.6472 28.9456 28.7759C28.3832 28.9046 27.7952 28.8631 27.2563 28.6568C26.7175 28.4504 26.2522 28.0885 25.9196 27.617C25.587 27.1455 25.4022 26.5857 25.3886 26.0089C25.4012 25.2026 25.7318 24.4338 26.3083 23.87C27.8967 22.0311 29.8691 20.5629 32.0864 19.5688C34.3037 18.5747 36.712 18.0789 39.1417 18.1164C47.0555 18.1164 52.5739 23.0358 52.5739 30.0942C52.5739 36.7033 48.3603 41.0667 40.9597 42.3286V42.2431Z" fill="black"/>
<path d="M64.1667 23.5278C70.0731 23.5278 74.8611 18.7397 74.8611 12.8334C74.8611 6.92698 70.0731 2.13892 64.1667 2.13892C58.2603 2.13892 53.4722 6.92698 53.4722 12.8334C53.4722 18.7397 58.2603 23.5278 64.1667 23.5278Z" fill="black"/>
</g>
<defs>
<clipPath id="clip0_10_489">
<rect width="77" height="77" fill="white"/>
</clipPath>
</defs>
</svg>
