<svg width="32" height="35" viewBox="0 0 32 35" fill="none" xmlns="http://www.w3.org/2000/svg">
<path fill-rule="evenodd" clip-rule="evenodd" d="M13.8597 0.120312C17.1611 -0.624328 19.5558 2.21884 19.5558 5.02995V29.97C19.5558 32.7812 17.1611 35.6243 13.8597 34.8797C5.92718 33.0911 0 25.9903 0 17.5C0 9.00968 5.92718 1.90887 13.8597 0.120312ZM23.6323 10.8962C23.9657 10.5622 24.4178 10.3746 24.8892 10.3746C25.3606 10.3746 25.8127 10.5622 26.1461 10.8962L31.4795 16.2405C31.8128 16.5746 32 17.0276 32 17.5C32 17.9724 31.8128 18.4254 31.4795 18.7595L26.1461 24.1038C25.8108 24.4283 25.3617 24.6078 24.8956 24.6038C24.4294 24.5997 23.9836 24.4124 23.6539 24.0821C23.3243 23.7518 23.1373 23.305 23.1333 22.8379C23.1292 22.3708 23.3084 21.9208 23.6323 21.5848L25.931 19.2814H10.6668C10.1953 19.2814 9.7431 19.0937 9.4097 18.7597C9.0763 18.4256 8.88899 17.9725 8.88899 17.5C8.88899 17.0275 9.0763 16.5744 9.4097 16.2403C9.7431 15.9063 10.1953 15.7186 10.6668 15.7186H25.931L23.6323 13.4152C23.299 13.0811 23.1118 12.6281 23.1118 12.1557C23.1118 11.6833 23.299 11.2303 23.6323 10.8962Z" fill="white"/>
</svg>
