<svg width="24" height="28" viewBox="0 0 24 28" fill="none" xmlns="http://www.w3.org/2000/svg">
<path d="M12 21.3333C12.7956 21.3333 13.5587 21.0524 14.1213 20.5523C14.6839 20.0522 15 19.3739 15 18.6667C15 17.9594 14.6839 17.2811 14.1213 16.781C13.5587 16.281 12.7956 16 12 16C11.2044 16 10.4413 16.281 9.87868 16.781C9.31607 17.2811 9 17.9594 9 18.6667C9 19.3739 9.31607 20.0522 9.87868 20.5523C10.4413 21.0524 11.2044 21.3333 12 21.3333ZM21 9.33333C21.7956 9.33333 22.5587 9.61429 23.1213 10.1144C23.6839 10.6145 24 11.2928 24 12V25.3333C24 26.0406 23.6839 26.7189 23.1213 27.219C22.5587 27.719 21.7956 28 21 28H3C2.20435 28 1.44129 27.719 0.87868 27.219C0.31607 26.7189 0 26.0406 0 25.3333V12C0 11.2928 0.31607 10.6145 0.87868 10.1144C1.44129 9.61429 2.20435 9.33333 3 9.33333H4.5V6.66667C4.5 4.89856 5.29018 3.20286 6.6967 1.95262C8.10322 0.702379 10.0109 0 12 0C12.9849 0 13.9602 0.172438 14.8701 0.50747C15.7801 0.842501 16.6069 1.33356 17.3033 1.95262C17.9997 2.57168 18.5522 3.30661 18.9291 4.11544C19.306 4.92428 19.5 5.79119 19.5 6.66667V9.33333H21ZM12 2.66667C10.8065 2.66667 9.66193 3.08809 8.81802 3.83824C7.97411 4.58839 7.5 5.6058 7.5 6.66667V9.33333H16.5V6.66667C16.5 5.6058 16.0259 4.58839 15.182 3.83824C14.3381 3.08809 13.1935 2.66667 12 2.66667Z" fill="white"/>
</svg>
