<svg width="43" height="43" viewBox="0 0 43 43" fill="none" xmlns="http://www.w3.org/2000/svg">
<path d="M21.5205 0.5C33.0915 0.5 42.5 9.89946 42.5 21.5C42.5 33.1006 33.0915 42.5 21.5205 42.5C9.90891 42.4999 0.5 33.1012 0.5 21.5C0.500027 9.89887 9.90892 0.5001 21.5205 0.5ZM17.8389 28.8193C13.6854 28.8193 10.3139 32.0279 9.99805 36.1113C13.1498 38.6301 17.1404 40.1357 21.5205 40.1357C25.8579 40.1357 29.8478 38.6312 33.04 36.1113C32.6851 32.0257 29.3123 28.8193 25.1611 28.8193H17.8389ZM21.5205 2.86426C11.2057 2.86436 2.86526 11.2367 2.86523 21.5C2.86523 26.4023 4.77477 30.8805 7.89941 34.207C9.0363 29.7649 13.0352 26.4561 17.8389 26.4561H25.1611C29.9647 26.4561 33.9626 29.765 35.0996 34.207C38.2245 30.8805 40.1348 26.4025 40.1348 21.5C40.1347 11.2359 31.7934 2.86426 21.5205 2.86426ZM21.5205 10.0479C25.563 10.0479 28.8467 13.3312 28.8467 17.4082C28.8467 21.4459 25.5611 24.7275 21.5205 24.7275C17.4406 24.7274 14.1533 21.4478 14.1533 17.4082C14.1533 13.3292 17.4387 10.048 21.5205 10.0479ZM21.5205 12.4111C18.7761 12.4112 16.5186 14.6678 16.5186 17.4082C16.5186 20.1438 18.7711 22.3642 21.5205 22.3643C24.265 22.3643 26.4814 20.1487 26.4814 17.4082C26.4814 14.6628 24.2601 12.4111 21.5205 12.4111Z" fill="white" stroke="white"/>
</svg>
