<svg width="43" height="43" viewBox="0 0 43 43" fill="none" xmlns="http://www.w3.org/2000/svg">
<path d="M25.5471 3.41386C25.3342 2.49513 24.8036 1.68113 24.049 1.1155C23.2944 0.549863 22.3642 0.268953 21.4227 0.322337C20.4811 0.375722 19.5887 0.759969 18.9028 1.40727C18.217 2.05458 17.7818 2.92334 17.6741 3.86024C17.5664 4.79715 17.7931 5.74199 18.3142 6.52803C18.8353 7.31407 19.6173 7.89079 20.5221 8.15642C21.427 8.42205 22.3967 8.35952 23.26 7.97986C24.1232 7.60021 24.8247 6.92782 25.2405 6.08136C27.7718 6.65778 30.1249 7.8413 32.0968 9.52986C34.0688 11.2184 35.6003 13.3613 36.5595 15.7737L39.0001 14.814C37.8703 11.9526 36.0511 9.41469 33.7041 7.42584C31.3571 5.43699 28.5551 4.05883 25.5471 3.41386ZM21.6669 5.66611C21.4882 5.67185 21.3102 5.64162 21.1435 5.57721C20.9767 5.5128 20.8246 5.41553 20.6962 5.29117C20.5678 5.16682 20.4657 5.01792 20.396 4.85333C20.3262 4.68874 20.2903 4.5118 20.2903 4.33305C20.2903 4.15429 20.3262 3.97736 20.396 3.81277C20.4657 3.64818 20.5678 3.49928 20.6962 3.37493C20.8246 3.25057 20.9767 3.1533 21.1435 3.08889C21.3102 3.02448 21.4882 2.99425 21.6669 2.99999C22.0206 2.99999 22.3598 3.14051 22.61 3.39063C22.8601 3.64076 23.0006 3.98 23.0006 4.33374C23.0006 4.68747 22.8601 5.02671 22.61 5.27684C22.3598 5.52697 22.0206 5.66611 21.6669 5.66611ZM15.7997 6.77436L14.8139 4.33511C11.9525 5.46489 9.41457 7.28413 7.42572 9.63112C5.43687 11.9781 4.0587 14.7801 3.41374 17.7881C2.49501 18.001 1.68101 18.5316 1.11537 19.2862C0.549741 20.0408 0.268831 20.971 0.322215 21.9126C0.3756 22.8541 0.759847 23.7466 1.40715 24.4324C2.05446 25.1183 2.92321 25.5534 3.86012 25.6611C4.79703 25.7688 5.74187 25.5421 6.52791 25.021C7.31395 24.5 7.89067 23.718 8.1563 22.8131C8.42193 21.9082 8.3594 20.9385 7.97974 20.0753C7.60008 19.212 6.9277 18.5105 6.08124 18.0947C6.66003 15.5604 7.84741 13.2053 9.54072 11.2328C11.234 9.26044 13.3823 7.73017 15.7997 6.77436ZM4.33224 23.0021C4.15709 23.0021 3.98365 22.9676 3.82184 22.9006C3.66002 22.8336 3.51299 22.7353 3.38914 22.6115C3.26529 22.4876 3.16704 22.3406 3.10002 22.1788C3.03299 22.0169 2.99849 21.8435 2.99849 21.6684C2.99849 21.4932 3.03299 21.3198 3.10002 21.158C3.16704 20.9961 3.26529 20.8491 3.38914 20.7253C3.51299 20.6014 3.66002 20.5032 3.82184 20.4361C3.98365 20.3691 4.15709 20.3346 4.33224 20.3346C4.68597 20.3346 5.02522 20.4751 5.27534 20.7253C5.52547 20.9754 5.66599 21.3146 5.66599 21.6684C5.66599 22.0221 5.52547 22.3613 5.27534 22.6115C5.02522 22.8616 4.68597 23.0021 4.33224 23.0021ZM21.6669 35.0017C20.923 35.0042 20.1946 35.2139 19.5633 35.6073C18.9321 36.0008 18.423 36.5625 18.0932 37.2292C15.5615 36.6529 13.2081 35.4692 11.2359 33.7804C9.26367 32.0916 7.73196 29.9483 6.77286 27.5355L4.33361 28.5214C5.46707 31.3876 7.2924 33.9286 9.64676 35.9178C12.0011 37.907 14.8113 39.2825 17.8265 39.9215C17.9997 40.6556 18.3768 41.3257 18.9145 41.8547C19.4521 42.3837 20.1282 42.75 20.865 42.9113C21.6018 43.0726 22.3692 43.0224 23.0786 42.7664C23.7881 42.5105 24.4108 42.0592 24.8749 41.4647C25.339 40.8702 25.6256 40.1566 25.7017 39.4062C25.7777 38.6558 25.6402 37.8992 25.3048 37.2236C24.9695 36.5481 24.45 35.981 23.8064 35.5879C23.1627 35.1948 22.421 34.9916 21.6669 35.0017ZM21.6669 40.3354C21.3131 40.3354 20.9739 40.1948 20.7238 39.9447C20.4736 39.6946 20.3331 39.3553 20.3331 39.0016C20.3331 38.6479 20.4736 38.3086 20.7238 38.0585C20.9739 37.8084 21.3131 37.6679 21.6669 37.6679C22.0206 37.6679 22.3598 37.8084 22.61 38.0585C22.8601 38.3086 23.0006 38.6479 23.0006 39.0016C23.0006 39.3553 22.8601 39.6946 22.61 39.9447C22.3598 40.1948 22.0206 40.3354 21.6669 40.3354ZM43 21.667C43.0024 20.9531 42.8138 20.2515 42.4537 19.6351C42.0936 19.0186 41.5751 18.5097 40.952 18.1612C40.329 17.8127 39.624 17.6373 38.9102 17.6531C38.1965 17.6689 37.5 17.8753 36.8929 18.2511C36.2859 18.6268 35.7904 19.1581 35.4579 19.7899C35.1254 20.4217 34.968 21.1309 35.0021 21.844C35.0361 22.5571 35.2603 23.2481 35.6514 23.8454C36.0425 24.4426 36.5863 24.9244 37.2264 25.2406C36.6498 27.7721 35.4661 30.1252 33.7773 32.0972C32.0885 34.0691 29.9453 35.6007 27.5326 36.5596L28.5199 39.0002C31.3861 37.8668 33.9271 36.0415 35.9163 33.6871C37.9055 31.3327 39.281 28.5226 39.92 25.5074C40.788 25.3021 41.5625 24.8127 42.1205 24.1169C42.6785 23.4211 42.9881 22.5588 43 21.667ZM38.9987 23.0007C38.645 23.0007 38.3058 22.8602 38.0556 22.6101C37.8055 22.36 37.665 22.0207 37.665 21.667C37.665 21.3133 37.8055 20.974 38.0556 20.7239C38.3058 20.4738 38.645 20.3332 38.9987 20.3332C39.3525 20.3332 39.6917 20.4738 39.9418 20.7239C40.192 20.974 40.3325 21.3133 40.3325 21.667C40.3325 22.0207 40.192 22.36 39.9418 22.6101C39.6917 22.8602 39.3525 23.0007 38.9987 23.0007Z" fill="black"/>
</svg>
