<svg width="52" height="52" viewBox="0 0 52 52" fill="none" xmlns="http://www.w3.org/2000/svg">
<path d="M39 34.7017C41.6975 35.8478 43.3334 37.3515 43.3334 39.0003C43.3334 42.5905 35.5724 45.5003 26 45.5003C16.4277 45.5003 8.66669 42.5905 8.66669 39.0003C8.66669 37.3537 10.3025 35.8457 13 34.7017" stroke="black" stroke-width="2" stroke-linecap="round" stroke-linejoin="round"/>
<path fill-rule="evenodd" clip-rule="evenodd" d="M27.599 38.296L27.6098 38.2852L27.6358 38.2548L27.7333 38.1465L28.093 37.7435C29.8939 35.6935 31.5918 33.5553 33.1803 31.3367C34.5713 29.3867 35.997 27.1767 37.0825 24.9818C38.1442 22.8368 39 20.4773 39 18.2955C39 10.554 33.3277 4.3335 26 4.3335C18.6723 4.3335 13 10.5518 13 18.2955C13 20.4773 13.8558 22.8368 14.9175 24.9818C16.003 27.1767 17.4308 29.3867 18.8175 31.3367C20.5123 33.7013 22.3312 35.9744 24.2667 38.1465L24.3642 38.2548L24.3902 38.2852L24.401 38.296C24.604 38.518 24.851 38.6953 25.1263 38.8166C25.4016 38.9379 25.6992 39.0006 26 39.0006C26.3008 39.0006 26.5984 38.9379 26.8737 38.8166C27.149 38.6953 27.396 38.518 27.599 38.296ZM26 13.0002C24.8507 13.0002 23.7485 13.4567 22.9359 14.2694C22.1232 15.082 21.6667 16.1842 21.6667 17.3335C21.6667 18.4828 22.1232 19.585 22.9359 20.3976C23.7485 21.2103 24.8507 21.6668 26 21.6668C27.1493 21.6668 28.2515 21.2103 29.0641 20.3976C29.8768 19.585 30.3333 18.4828 30.3333 17.3335C30.3333 16.1842 29.8768 15.082 29.0641 14.2694C28.2515 13.4567 27.1493 13.0002 26 13.0002Z" fill="black"/>
</svg>
