<svg width="18" height="17" viewBox="0 0 18 17" fill="none" xmlns="http://www.w3.org/2000/svg">
<g clip-path="url(#clip0_19_1414)">
<path fill-rule="evenodd" clip-rule="evenodd" d="M3.23335 2.34607C3.13522 2.30482 3.02696 2.294 2.92261 2.31503C2.81826 2.33605 2.72263 2.38794 2.64812 2.46397C2.57362 2.54 2.52368 2.63666 2.50478 2.74142C2.48588 2.84617 2.49889 2.95419 2.54212 3.05147L4.73267 7.97011H10.1095C10.2504 7.97011 10.3855 8.02608 10.4851 8.12569C10.5847 8.2253 10.6407 8.36041 10.6407 8.50128C10.6407 8.64216 10.5847 8.77726 10.4851 8.87688C10.3855 8.97649 10.2504 9.03245 10.1095 9.03245H4.73267L2.54212 13.9511C2.49889 14.0484 2.48588 14.1564 2.50478 14.2612C2.52368 14.3659 2.57362 14.4626 2.64812 14.5386C2.72263 14.6146 2.81826 14.6665 2.92261 14.6875C3.02696 14.7086 3.13522 14.6977 3.23335 14.6565L16.6897 8.99067C16.7859 8.95006 16.8681 8.88197 16.9258 8.79493C16.9836 8.70788 17.0144 8.60574 17.0144 8.50128C17.0144 8.39683 16.9836 8.29469 16.9258 8.20764C16.8681 8.12059 16.7859 8.05251 16.6897 8.0119L3.23335 2.34607Z" fill="white"/>
</g>
<defs>
<clipPath id="clip0_19_1414">
<rect width="16.9975" height="16.9975" fill="white" transform="translate(0.902588 0.00256348)"/>
</clipPath>
</defs>
</svg>
