<svg width="29" height="29" viewBox="0 0 29 29" fill="none" xmlns="http://www.w3.org/2000/svg">
<path fill-rule="evenodd" clip-rule="evenodd" d="M13.6445 3.99713C13.1684 4.61821 12.6319 5.57763 11.8513 6.97688L11.4562 7.68617L11.3849 7.81425C11.0224 8.46675 10.7143 9.02017 10.2201 9.39475C9.72102 9.77417 9.11202 9.91071 8.40393 10.0702L8.26618 10.1016L7.49768 10.2756C5.98123 10.6188 4.9481 10.8544 4.24243 11.1335C3.55248 11.4042 3.40748 11.6278 3.35189 11.8054C3.29268 11.9939 3.29148 12.2827 3.70231 12.9376C4.1216 13.6022 4.82848 14.4311 5.86039 15.6394L6.38481 16.252L6.47543 16.3572C6.96239 16.9251 7.36839 17.3988 7.55448 17.9981C7.73935 18.5938 7.67773 19.2185 7.60281 19.9773L7.59073 20.1187L7.51098 20.9368C7.35389 22.5463 7.24998 23.6555 7.28502 24.453C7.32127 25.2505 7.48923 25.4704 7.62335 25.5719C7.74177 25.6625 7.96168 25.7616 8.67823 25.5562C9.40685 25.3484 10.3759 24.9049 11.7957 24.2512L12.5159 23.9201L12.6476 23.8597C13.3061 23.554 13.8765 23.2906 14.5 23.2906C15.1235 23.2906 15.6938 23.554 16.3524 23.8585C16.395 23.8794 16.4394 23.8996 16.4853 23.9189L17.2042 24.2512C18.624 24.9049 19.5931 25.3484 20.3217 25.5562C21.0383 25.7616 21.2582 25.6625 21.3766 25.5719C21.5107 25.4704 21.6787 25.2493 21.7149 24.453C21.7512 23.6555 21.6449 22.5463 21.489 20.9368L21.4092 20.1187L21.3971 19.9773C21.3222 19.2185 21.2606 18.5938 21.4455 17.9981C21.6316 17.3988 22.0376 16.9251 22.5245 16.3572L22.6151 16.252L23.1396 15.6394C24.1715 14.4311 24.8784 13.6022 25.2964 12.9376C25.7085 12.2827 25.7073 11.9951 25.6481 11.8054C25.5925 11.6278 25.4475 11.4042 24.7575 11.1335C24.0506 10.8544 23.0187 10.6188 21.5023 10.2756L20.7338 10.1016L20.596 10.0702C19.8879 9.91071 19.2789 9.77417 18.7799 9.39475C18.2845 9.02017 17.9788 8.46796 17.6151 7.81425L17.545 7.68617L17.1486 6.97688C16.3681 5.57763 15.8316 4.61821 15.3555 3.99713C14.8794 3.37604 14.6377 3.32288 14.5 3.32288C14.3622 3.32288 14.1194 3.37604 13.6445 3.99713ZM12.2066 2.89513C12.7805 2.14354 13.4922 1.51038 14.5 1.51038C15.5077 1.51038 16.2182 2.14354 16.7946 2.89513C17.3601 3.63463 17.9606 4.71125 18.6941 6.02713L19.1279 6.80408C19.6016 7.65475 19.7236 7.836 19.8759 7.952C20.0209 8.06196 20.2106 8.12479 21.1325 8.33383L21.9784 8.52475C23.3994 8.84617 24.5702 9.11079 25.4221 9.44671C26.3066 9.79592 27.0811 10.3095 27.3796 11.2677C27.6744 12.2162 27.3434 13.0886 26.831 13.9018C26.3332 14.6933 25.5381 15.6237 24.5666 16.7595L23.9926 17.4302C23.3679 18.16 23.2374 18.3388 23.1758 18.5358C23.1142 18.7376 23.119 18.9708 23.2145 19.9435L23.3003 20.8353C23.4477 22.3529 23.5673 23.5903 23.525 24.5328C23.4827 25.4934 23.2652 26.4141 22.4738 27.0159C21.6666 27.6273 20.7277 27.5596 19.8215 27.2986C18.943 27.0473 17.8483 26.5434 16.5191 25.9308L15.7264 25.5659C14.8589 25.1671 14.674 25.1031 14.5 25.1031C14.326 25.1031 14.1411 25.1671 13.2735 25.5659L12.4821 25.9308C11.1517 26.5434 10.0569 27.0473 9.17848 27.2986C8.27223 27.5584 7.33335 27.6273 6.52739 27.0159C5.73473 26.4141 5.51723 25.4934 5.47493 24.534C5.43264 23.5915 5.55227 22.3529 5.69968 20.8365L5.78668 19.9435C5.88093 18.9696 5.88577 18.7376 5.82293 18.5358C5.76252 18.3388 5.63202 18.1612 5.00731 17.4302L4.43335 16.7595C3.46306 15.6237 2.66798 14.6933 2.17014 13.903C1.6566 13.0886 1.32552 12.2162 1.62035 11.2677C1.91881 10.3095 2.69335 9.79592 3.57785 9.44671C4.42973 9.11079 5.6006 8.84617 7.0216 8.52475L7.09773 8.50783L7.86623 8.33383C8.78939 8.12479 8.97789 8.06196 9.1241 7.95079C9.27635 7.836 9.39839 7.65475 9.87327 6.80408L10.3059 6.02713C11.0393 4.71004 11.6399 3.63463 12.2054 2.89513" fill="black"/>
</svg>
