<svg width="29" height="29" viewBox="0 0 29 29" fill="none" xmlns="http://www.w3.org/2000/svg">
<path d="M16.3247 3.7929C15.5368 2.36103 13.4633 2.36103 12.6743 3.7929C11.6367 5.67837 10.7813 7.65853 10.1199 9.70648C10.0887 9.78661 10.0338 9.85532 9.96257 9.90346C9.89133 9.9516 9.80711 9.97689 9.72113 9.97594C7.94846 10.022 6.18157 10.1981 4.43467 10.5028C2.81913 10.7843 2.10742 12.7225 3.33509 13.9224C3.48976 14.0738 3.64603 14.2244 3.80392 14.3743C4.98665 15.4942 6.23897 16.5383 7.55338 17.5002C7.61309 17.5399 7.65833 17.5978 7.6823 17.6654C7.70627 17.7329 7.70767 17.8064 7.6863 17.8748C7.02273 19.8658 6.54857 21.9149 6.27013 23.995C6.04055 25.7157 7.86271 26.7718 9.28492 26.0419C11.0115 25.1571 12.6624 24.1318 14.221 22.9764C14.3026 22.9187 14.4001 22.8877 14.5001 22.8877C14.6001 22.8877 14.6976 22.9187 14.7792 22.9764C16.3369 24.1331 17.9879 25.1585 19.7153 26.0419C21.1375 26.7718 22.9596 25.7157 22.73 23.995C22.452 21.915 21.9782 19.8658 21.3151 17.8748C21.2937 17.8064 21.2951 17.7329 21.3191 17.6654C21.3431 17.5978 21.3883 17.5399 21.448 17.5002C22.9373 16.4102 24.3466 15.2149 25.6651 13.9236C26.8928 12.7225 26.181 10.7843 24.5655 10.5028C22.8182 10.198 21.0509 10.022 19.2778 9.97594C19.1921 9.97664 19.1081 9.95124 19.0371 9.90312C18.9661 9.85499 18.9114 9.78641 18.8803 9.70648C18.2209 7.65775 17.3643 5.67738 16.3247 3.7929Z" fill="#FFB800"/>
</svg>
