<svg width="78" height="62" viewBox="0 0 78 62" fill="none" xmlns="http://www.w3.org/2000/svg">
<path d="M13.5255 0.000198271C13.3928 0.000198271 13.2434 0.016901 13.1106 0.036944C7.96762 0.923849 2.808 12.4102 1.09532 16.5691H38.7345L40.7094 12.5772C38.6515 9.2367 34.8511 4.16581 31.034 4.3796C28.5281 4.51322 23.7319 10.0551 23.7319 10.0551C23.7319 10.0551 17.857 -0.0515796 13.5255 0.000198271ZM45.9038 8.88595L40.5932 19.5756H27.3664L20.6119 35.443C24.263 35.9942 27.4826 37.8982 29.7396 40.6208H44.2774C45.074 39.652 45.9868 38.8002 46.9992 38.0653L51.7455 16.5691H59.8609L62.566 8.88595H45.9038ZM0 19.5756V32.9376L2.25204 33.5222L8.19332 19.5756H0ZM11.4361 19.5756L5.16791 34.2905L9.40979 35.4096L16.1477 19.5756H11.4361ZM19.4004 19.5756L12.3273 36.1779L12.9414 36.3449C14.3387 35.777 15.8489 35.4096 17.4255 35.3093L24.1136 19.5756H19.4004ZM54.1353 19.5756L50.4677 36.1946C52.0609 35.61 53.8034 35.2759 55.5957 35.2759C62.2838 35.2759 67.9762 39.8023 69.7685 45.9656H78V32.52L70.283 29.9311L67.7106 19.5756H61.9519H54.1353ZM57.0894 21.9139H64.7234L66.7979 30.2652H55.0149L56.8072 23.0497L57.0894 21.9139ZM18.4213 38.2824C11.8958 38.2824 6.6383 43.5771 6.6383 50.1412C6.6383 56.7053 11.8958 62 18.4213 62C24.9434 62 30.2043 56.7053 30.2043 50.1412C30.2043 43.5771 24.9434 38.2824 18.4213 38.2824ZM55.5957 38.2824C49.0736 38.2824 43.8128 43.5771 43.8128 50.1412C43.8128 56.7053 49.0736 62 55.5957 62C62.1179 62 67.3787 56.7053 67.3787 50.1412C67.3787 43.5771 62.1179 38.2824 55.5957 38.2824ZM2.38647 43.6272L0.328596 53.9828H4.15391C3.82698 52.7635 3.65106 51.4607 3.65106 50.1412C3.65106 47.8028 4.19043 45.5981 5.15132 43.6272H2.38647ZM31.6979 43.6272C32.6438 45.5981 33.1915 47.8028 33.1915 50.1412C33.1915 51.4607 33.0089 52.7635 32.6936 53.9828H41.3234C41.0081 52.7635 40.8255 51.4607 40.8255 50.1412C40.8255 47.8028 41.3732 45.5981 42.3191 43.6272H31.6979ZM18.4213 44.7964C19.8297 44.7964 21.1805 45.3595 22.1765 46.3619C23.1724 47.3642 23.7319 48.7237 23.7319 50.1412C23.7319 51.5587 23.1724 52.9182 22.1765 53.9206C21.1805 54.9229 19.8297 55.486 18.4213 55.486C17.0128 55.486 15.662 54.9229 14.6661 53.9206C13.6702 52.9182 13.1106 51.5587 13.1106 50.1412C13.1106 48.7237 13.6702 47.3642 14.6661 46.3619C15.662 45.3595 17.0128 44.7964 18.4213 44.7964ZM55.5957 44.7964C57.0042 44.7964 58.355 45.3595 59.3509 46.3619C60.3469 47.3642 60.9064 48.7237 60.9064 50.1412C60.9064 51.5587 60.3469 52.9182 59.3509 53.9206C58.355 54.9229 57.0042 55.486 55.5957 55.486C54.1873 55.486 52.8365 54.9229 51.8406 53.9206C50.8446 52.9182 50.2851 51.5587 50.2851 50.1412C50.2851 48.7237 50.8446 47.3642 51.8406 46.3619C52.8365 45.3595 54.1873 44.7964 55.5957 44.7964ZM70.3162 48.972C70.3494 49.3562 70.366 49.7403 70.366 50.1412C70.366 51.9284 70.0506 53.632 69.4698 55.2355L78 51.7948V48.972H70.3162Z" fill="black"/>
</svg>
