<svg width="24" height="29" viewBox="0 0 24 29" fill="none" xmlns="http://www.w3.org/2000/svg">
<path fill-rule="evenodd" clip-rule="evenodd" d="M5.1 7.09526C5.1 3.18781 8.2 0 12 0C15.8 0 18.9 3.18781 18.9 7.09526C18.9 11.0027 15.8 14.0873 12 14.0873C8.2 14.0873 5.1 11.0027 5.1 7.09526ZM6 7.09526C6 10.4886 8.7 13.2649 12 13.2649C15.3 13.2649 18 10.4886 18 7.09526C18 3.70195 15.3 0.9256 12 0.9256C8.7 0.9256 6 3.70195 6 7.09526ZM24 26.324C24 27.3523 23.2 28.1749 22.1 28.1749H1.9C0.800002 28.1749 0 27.3523 0 26.324C0 21.0798 4.2 16.761 9.3 16.761H14.7C19.8 16.761 24 21.0798 24 26.324ZM23.1 26.324C23.1 21.4911 19.4 17.6863 14.7 17.6863H9.3C4.6 17.6863 0.900002 21.4911 0.900002 26.324C0.900002 26.8381 1.3 27.3523 1.9 27.3523H22.1C22.7 27.3523 23.1 26.8381 23.1 26.324Z" fill="white"/>
</svg>
