<svg width="69" height="66" viewBox="0 0 69 66" fill="none" xmlns="http://www.w3.org/2000/svg">
<path fill-rule="evenodd" clip-rule="evenodd" d="M34.9091 39.0454C34.0049 39.0454 33.1378 38.6862 32.4985 38.0469C31.8592 37.4076 31.5 36.5405 31.5 35.6363V18.5909C31.5 17.6867 31.8592 16.8196 32.4985 16.1803C33.1378 15.5409 34.0049 15.1818 34.9091 15.1818C35.8132 15.1818 36.6804 15.5409 37.3197 16.1803C37.959 16.8196 38.3182 17.6867 38.3182 18.5909V35.6363C38.3182 36.5405 37.959 37.4076 37.3197 38.0469C36.6804 38.6862 35.8132 39.0454 34.9091 39.0454Z" fill="black"/>
<path d="M31.3193 46.4023C31.3193 45.4502 31.6975 44.5371 32.3707 43.8639C33.0439 43.1907 33.957 42.8125 34.909 42.8125C35.8611 42.8125 36.7742 43.1907 37.4474 43.8639C38.1206 44.5371 38.4988 45.4502 38.4988 46.4023C38.4988 47.3543 38.1206 48.2674 37.4474 48.9406C36.7742 49.6138 35.8611 49.992 34.909 49.992C33.957 49.992 33.0439 49.6138 32.3707 48.9406C31.6975 48.2674 31.3193 47.3543 31.3193 46.4023Z" fill="black"/>
<path fill-rule="evenodd" clip-rule="evenodd" d="M47.2057 7.82498L67.2375 44.3704C72.392 53.7761 65.625 65.2954 54.9409 65.2954H14.8773C4.19316 65.2954 -2.57729 53.7727 2.58066 44.367L22.6125 7.82157C27.9511 -1.91139 41.867 -1.91139 47.2057 7.82157V7.82498ZM41.0557 11.2341C38.3898 6.36248 31.4284 6.36248 28.7625 11.2341L8.72726 47.7727C6.14657 52.4773 9.5318 58.2352 14.8738 58.2352H54.9375C60.2795 58.2352 63.6648 52.4738 61.0841 47.7693L41.0557 11.2341Z" fill="black"/>
</svg>
